<svg width="110" height="50" viewBox="0 0 110 50" fill="none" xmlns="http://www.w3.org/2000/svg">
<g clip-path="url(#clip0_1195_1506)">
<path d="M19.5312 36.4842V33.1249C18.9062 34.2187 17.8906 35.1562 16.4844 35.8593C15.0781 36.5624 13.4375 36.9529 11.5625 36.9529C9.84372 36.9529 8.28123 36.6405 6.87498 36.0936C5.46874 35.5467 4.21875 34.6874 3.20312 33.5937C2.26562 32.5781 1.48437 31.2499 0.859373 29.6874C0.312499 28.1249 0 26.4062 0 24.453C0 22.5781 0.312499 20.7811 0.859373 19.2968C1.40625 17.7343 2.26562 16.4062 3.28123 15.3125C4.29686 14.2187 5.54686 13.4375 6.9531 12.8125C8.35936 12.2656 9.92185 11.9531 11.6406 11.9531C13.4375 11.9531 15 12.2656 16.3281 12.8906C17.6562 13.5156 18.5938 14.2968 19.2968 15.2343V0H24.5312V36.4842H19.5312ZM12.4218 16.4844C11.4062 16.4844 10.4687 16.6405 9.60935 17.0313C8.74998 17.3437 7.96873 17.8906 7.34373 18.5938C6.71873 19.2968 6.24999 20.1563 5.85936 21.0937C5.46874 22.1093 5.31249 23.2031 5.31249 24.5312C5.31249 25.7812 5.46874 26.9531 5.85936 27.9687C6.24999 28.9062 6.71873 29.6874 7.34373 30.3905C7.96873 31.0937 8.74998 31.5624 9.60935 31.953C10.4687 32.2655 11.4062 32.4999 12.4218 32.4999C14.375 32.4999 16.0156 31.8749 17.3437 30.625C18.5938 29.3749 19.2968 27.578 19.2968 25.1562V23.9061C19.2968 21.5625 18.6718 19.6874 17.3437 18.4375C16.0937 17.1093 14.4531 16.4844 12.4218 16.4844Z" fill="#3F7CDB"/>
<path d="M61.5627 39.5311C61.5627 42.4218 60.7816 44.6875 59.1409 46.328C57.5003 47.9686 55.3128 48.75 52.5784 48.75C52.1096 48.75 51.7972 48.75 51.4846 48.75C51.1722 48.75 50.8597 48.6718 50.469 48.5937V43.9843C50.8597 44.0625 51.4066 44.1406 51.9535 44.1406C53.2815 44.1406 54.2972 43.7499 55.0785 42.9687C55.8596 42.1874 56.2502 41.0936 56.2502 39.6093V12.4219H61.4846V39.5311H61.5627ZM61.5627 7.3438H56.3284V2.03131H61.5627V7.3438Z" fill="#3F7CDB"/>
<path d="M75.2342 11.9526C78.3592 11.9526 80.781 12.7339 82.4216 14.3745C84.0623 16.0151 84.9216 18.359 84.9216 21.4839V36.4838H79.6091V34.3745C78.7498 35.1556 77.8123 35.8588 76.7185 36.3275C75.6248 36.7963 74.4529 37.0307 73.0467 37.0307C70.6247 37.0307 68.6716 36.4057 67.1873 35.2338C65.7029 33.9839 64.9998 32.2651 64.9998 29.9994C64.9998 28.7495 65.2342 27.6558 65.7029 26.7183C66.1717 25.8588 66.7967 25.0777 67.5779 24.5308C68.3592 23.9839 69.2966 23.5152 70.3904 23.2026C71.4842 22.8901 72.6561 22.7338 73.8278 22.6557L79.5311 22.3433V21.6401C79.5311 20.0776 79.2185 18.8277 78.5153 17.9682C77.8123 17.1089 76.7185 16.6402 75.2342 16.6402C73.7498 16.6402 72.6561 17.0307 71.9529 17.8901C71.2497 18.6714 70.9373 19.687 70.9373 20.7808L65.6248 20.4682C65.6248 19.3746 65.8592 18.359 66.2498 17.3432C66.7185 16.3276 67.3436 15.3901 68.1247 14.6089C68.9061 13.8276 69.9217 13.2026 71.1716 12.6558C72.4216 12.2651 73.7498 11.9526 75.2342 11.9526ZM74.6092 26.7183C73.3591 26.7963 72.3435 27.0307 71.5623 27.4995C70.781 27.9682 70.3904 28.7495 70.3904 29.8433C70.3904 30.8589 70.7028 31.5619 71.406 31.9527C72.1092 32.3432 72.9685 32.5775 73.9841 32.5775C75.7029 32.5775 77.031 32.1869 78.1247 31.3276C79.1403 30.4681 79.6872 29.1401 79.6872 27.2652V26.4057L74.6092 26.7183Z" fill="#3F7CDB"/>
<path d="M93.9063 15.1562C94.453 14.2968 95.3125 13.5937 96.4062 12.9687C97.5 12.3437 98.9062 12.0312 100.625 12.0312C102.031 12.0312 103.281 12.2656 104.375 12.7343C105.547 13.2031 106.484 13.8281 107.344 14.6875C108.203 15.5468 108.828 16.5624 109.297 17.8124C109.765 19.0625 110 20.4687 110 22.0312V36.5624H104.687V22.7344C104.687 20.9374 104.219 19.4531 103.281 18.4375C102.344 17.4219 101.016 16.875 99.453 16.875C97.7343 16.875 96.4062 17.4219 95.3906 18.5156C94.375 19.6094 93.8281 21.0156 93.8281 22.7344V36.4842H88.5938V0H93.8281V15.1562H93.9063Z" fill="#3F7CDB"/>
<path d="M51.3284 17.7342L47.1097 13.5156C46.1722 12.5781 44.8442 12.0312 43.516 12.0312H36.8754C35.5472 12.0312 34.2192 12.5781 33.2817 13.5156L29.063 17.7342C28.1253 18.6719 27.5786 19.9999 27.5786 21.3281V27.8905C27.5786 29.2186 28.1253 30.5468 29.063 31.4842L34.141 36.5623C34.4535 36.8749 34.6097 37.2655 34.6097 37.7342V39.7654C34.6097 40.9374 35.5472 41.8748 36.7191 41.8748H43.4378C44.6097 41.8748 45.5472 40.9374 45.5472 39.7654V37.8124C45.5472 37.4218 45.7035 36.9531 46.0159 36.6405L51.2503 31.4842C52.1879 30.5468 52.7348 29.2186 52.7348 27.8905V21.3281C52.8909 19.9999 52.344 18.7499 51.3284 17.7342ZM47.5004 27.0312C47.5004 27.7342 47.266 28.3593 46.7973 28.9061L44.766 31.0937C44.0629 31.7968 43.9066 32.8904 44.2973 33.8281L45.469 36.7186H35.0785L36.2504 33.8281C36.641 32.8904 36.4067 31.8748 35.7817 31.0937L33.7504 28.9061C33.2817 28.4374 33.0473 27.7342 33.0473 27.0312V22.2656C33.0473 21.5624 33.2817 20.9374 33.7504 20.4686L36.0159 17.8905C36.5628 17.3437 37.266 16.9531 38.0473 16.9531H42.5004C43.2817 16.9531 43.9847 17.2655 44.5316 17.8905L46.8754 20.4686C47.3441 20.9374 47.5784 21.6406 47.5784 22.3437V27.0312H47.5004Z" fill="#3F7CDB"/>
</g>
<defs>
<clipPath id="clip0_1195_1506">
<rect width="110" height="49.2537" fill="white"/>
</clipPath>
</defs>
</svg>
