<svg width="332" height="332" viewBox="0 0 332 332" fill="none" xmlns="http://www.w3.org/2000/svg">
<path d="M268.947 239.436L251.268 248.289L247.409 250.219L225.929 262.477L213.273 269.685L204.817 255.071C202.376 251.155 199.51 248.204 196.19 246.303C192.87 244.373 190.005 244.004 187.593 245.139L214.635 231.604L244.345 216.763C246.757 215.628 249.623 215.997 252.943 217.927C256.263 219.828 259.129 222.779 261.569 226.695L268.947 239.436Z" fill="#85E585" stroke="#EEFBEE" stroke-width="2.83761" stroke-linecap="round" stroke-linejoin="round"/>
<path d="M324.708 243.578C324.708 247.381 323.601 250.048 321.388 251.524L278.482 275.644L276.978 276.381L221.73 304.018L264.635 279.9C266.536 278.623 267.614 276.495 267.87 273.487C267.926 273.005 267.955 272.493 267.955 271.954C267.955 268.124 266.848 264.208 264.635 260.15C262.223 256.206 259.329 253.283 256.009 251.353C254.647 250.559 253.37 250.048 252.149 249.793C250.418 249.396 248.829 249.538 247.411 250.219L251.27 248.289L268.948 239.436L304.164 221.842C306.576 220.679 309.442 221.076 312.762 222.977C316.082 224.907 318.976 227.83 321.388 231.774C323.601 235.832 324.708 239.748 324.708 243.578Z" fill="#85E585" stroke="#EEFBEE" stroke-width="2.83761" stroke-linecap="round" stroke-linejoin="round"/>
<path d="M267.952 271.955C267.952 272.494 267.923 273.004 267.866 273.487C267.611 276.495 266.533 278.623 264.631 279.9L221.727 304.021C219.513 305.525 216.676 305.269 213.271 303.311C209.837 301.325 207.028 298.314 204.815 294.257L204.105 293.039L203.169 291.476L187.591 264.889C185.15 260.718 183.958 256.745 183.958 252.914C183.958 249.083 185.15 246.53 187.591 245.139C190.003 244.004 192.868 244.373 196.188 246.303C199.508 248.204 202.375 251.155 204.815 255.071L213.271 269.684L225.926 262.477L247.407 250.219C248.826 249.538 250.415 249.396 252.146 249.793C253.366 250.048 254.643 250.559 256.005 251.353C259.325 253.283 262.219 256.206 264.631 260.15C266.845 264.208 267.952 268.124 267.952 271.955Z" fill="#85E585" stroke="#EEFBEE" stroke-width="2.83761" stroke-linecap="round" stroke-linejoin="round"/>
<path d="M203.171 291.479L204.108 293.04L177.917 306.121C170.255 294.544 164.325 281.802 160.096 267.926C158.167 261.627 156.691 255.611 155.67 249.879C154.365 242.983 153.74 236.513 153.74 230.469C153.74 206.662 160.891 190.97 175.192 183.393C186.741 177.264 199.199 176.839 212.592 182.117C211.202 187.962 210.492 194.63 210.492 202.093C210.492 211.003 211.883 220.85 214.635 231.604L187.593 245.14C185.153 246.53 183.961 249.112 183.961 252.915C183.961 256.717 185.153 260.718 187.593 264.89L203.171 291.479Z" fill="#85E585" stroke="#EEFBEE" stroke-width="2.83761" stroke-linecap="round" stroke-linejoin="round"/>
<path d="M248.601 206.179C244.572 202.008 240.344 198.404 235.917 195.396C231.49 192.36 226.95 189.522 222.325 186.855C219.034 184.954 215.77 183.365 212.592 182.116C199.198 176.838 186.741 177.264 175.192 183.393C160.891 190.97 153.74 206.661 153.74 230.469C153.74 236.513 154.365 242.983 155.67 249.878C156.691 255.61 158.167 261.626 160.096 267.926C164.324 281.801 170.255 294.541 177.916 306.118C174.086 307.849 169.091 309.977 162.962 312.56C156.805 315.142 151.527 317.469 147.1 319.54L137.424 323.998C135.21 325.048 132.543 324.648 129.422 322.86C126.301 321.044 123.633 318.351 121.42 314.747L91.1991 265.769C76.6989 242.359 64.2702 221.786 53.8845 203.994C43.5273 186.231 34.9577 170.198 28.2043 155.897C21.4508 141.595 16.5134 128.684 13.3921 117.192C10.2707 105.671 8.70996 94.6042 8.70996 83.9632C8.70996 62.2555 15.0661 47.8121 27.7502 40.7181C28.6866 40.1789 29.6514 39.6965 30.6446 39.2709C40.7464 34.8442 52.6928 35.7242 66.4552 41.9385C69.2928 43.1871 72.1871 44.6907 75.195 46.4216C85.6657 52.4658 95.6257 60.7232 105.103 71.1372C114.581 81.5796 122.725 93.4124 129.564 106.607C131.408 105.188 133.338 103.969 135.381 102.975L135.778 102.777C141.198 100.166 147.299 99.0595 154.052 99.4001C163.501 99.9108 173.49 103.174 183.96 109.218C201.071 119.093 215.429 133.338 227.007 151.924C227.915 153.4 228.795 154.847 229.674 156.322C239.691 173.376 246.019 190.005 248.601 206.179Z" fill="#85E585" stroke="#EEFBEE" stroke-width="2.83761" stroke-linecap="round" stroke-linejoin="round"/>
<path d="M305.355 177.803L248.602 206.179C246.019 190.005 239.691 173.377 229.675 156.322C228.795 154.847 227.915 153.4 227.007 151.924C215.43 133.338 201.072 119.093 183.961 109.218C173.49 103.174 163.502 99.9109 154.053 99.4001C147.299 99.0596 141.198 100.166 135.778 102.777L186.004 77.664L191.225 75.0534C196.985 71.9888 203.484 70.6551 210.805 71.024C220.254 71.5348 230.242 74.798 240.713 80.8421C257.824 90.717 272.182 104.962 283.759 123.548C295.338 142.134 302.546 160.238 305.355 177.803Z" fill="#85E585" stroke="#EEFBEE" stroke-width="2.83761" stroke-linecap="round" stroke-linejoin="round"/>
<path d="M186.001 77.6637L135.776 102.777L135.378 102.975C133.335 103.969 131.406 105.188 129.561 106.607C122.722 93.4124 114.578 81.5796 105.101 71.1372C95.6233 60.7232 85.6633 52.4658 75.1925 46.4216C72.1847 44.6907 69.2903 43.1871 66.4527 41.9385C52.6903 35.7242 40.744 34.8442 30.6421 39.2709L84.4999 12.342C97.184 5.21965 113.018 7.12088 131.945 18.0457C142.415 24.0898 152.375 32.3471 161.853 42.7611C171.189 53.0616 179.248 64.6958 186.001 77.6637Z" fill="#85E585" stroke="#EEFBEE" stroke-width="2.83761" stroke-linecap="round" stroke-linejoin="round"/>
</svg>
