<svg width="332" height="332" viewBox="0 0 332 332" fill="none" xmlns="http://www.w3.org/2000/svg">
<path d="M224.752 90.0133L170.608 117.085L141.37 56.7685C139.285 52.3558 136.794 48.5927 133.925 45.4253C131.055 42.285 128.05 39.7943 124.91 37.9805C121.797 36.1667 118.792 35.1923 115.922 35.0299C114.108 34.9216 112.43 35.2465 110.914 36.0316L115.408 33.7843L164.922 9.04054L165.356 8.82391C166.791 8.14711 168.361 7.84948 170.066 7.95777C172.936 8.1202 175.941 9.09468 179.054 10.9085C182.195 12.7223 185.199 15.213 188.069 18.3533C190.939 21.5208 193.429 25.2838 195.514 29.6964L224.752 90.0133Z" fill="#85E585" stroke="#EEFBEE" stroke-width="2.70721" stroke-linecap="round" stroke-linejoin="round"/>
<path d="M115.407 33.7842L110.913 36.0312C110.047 36.4643 109.235 37.0599 108.477 37.7909L80.2136 63.4552L79.239 64.3215L34.8678 55.7938C32.0793 55.3065 29.6969 55.4689 27.6665 56.3352L81.4586 29.4527C83.5432 28.451 86.0611 28.2074 89.012 28.7217L115.407 33.7842Z" fill="#85E585" stroke="#EEFBEE" stroke-width="2.70721" stroke-linecap="round" stroke-linejoin="round"/>
<path d="M229.596 191.292C229.596 193.701 229.298 195.921 228.703 197.951C228.08 200.009 227.078 201.714 225.698 203.122L196.974 233.28L197.083 238.911L198.03 283.012C198.193 290.077 196.189 294.815 192.02 297.197C187.851 299.58 182.978 299.174 177.401 295.952C177.049 295.762 175.127 294.355 171.662 291.729L124.909 249.794L78.1821 237.774C77.3158 237.666 76.3683 237.368 75.3125 236.881C74.2838 236.367 73.3092 235.879 72.4429 235.365C66.866 232.143 61.9931 226.946 57.824 219.744C53.6549 212.543 51.6515 205.477 51.814 198.601L52.8698 149.763L24.4172 86.9018C23.0094 83.8968 22.0076 81.0271 21.412 78.2929C20.7894 75.5315 20.4917 72.9594 20.4917 70.5771C20.4917 65.5687 21.764 61.6706 24.2817 58.8281C25.1209 57.8805 26.0686 57.1496 27.1244 56.6082L27.6657 56.3374C29.6961 55.4711 32.0785 55.3087 34.8669 55.796L79.238 64.3234L80.2126 63.4574L108.476 37.7931C109.234 37.0621 110.046 36.4665 110.912 36.0334C112.428 35.2483 114.107 34.9234 115.921 35.0317C118.79 35.1942 121.795 36.1688 124.909 37.9826C128.049 39.7964 131.054 42.287 133.924 45.4274C136.793 48.5948 139.284 52.3578 141.368 56.7706L170.606 117.087L214.977 159.78C219.525 164.003 223.072 169.011 225.698 174.804C228.297 180.598 229.596 186.094 229.596 191.292Z" fill="#85E585" stroke="#EEFBEE" stroke-width="2.70721" stroke-linecap="round" stroke-linejoin="round"/>
<path d="M283.741 164.219C283.741 166.629 283.443 168.848 282.847 170.879C282.225 172.936 281.223 174.642 279.842 176.05L251.119 206.208L196.975 233.28L225.698 203.122C227.079 201.714 228.08 200.008 228.703 197.951C229.299 195.921 229.596 193.701 229.596 191.291C229.596 186.093 228.297 180.598 225.698 174.804C223.072 169.011 219.526 164.003 214.978 159.779L170.606 117.087L224.751 90.0146L269.122 132.707C273.67 136.931 277.216 141.939 279.842 147.732C282.441 153.525 283.741 159.021 283.741 164.219Z" fill="#85E585" stroke="#EEFBEE" stroke-width="2.70721" stroke-linecap="round" stroke-linejoin="round"/>
<path d="M252.175 255.939C252.338 263.005 250.334 267.742 246.165 270.125L192.021 297.197C196.19 294.815 198.193 290.077 198.031 283.011L197.083 238.911L196.975 233.28L251.119 206.208L252.175 255.939Z" fill="#85E585" stroke="#EEFBEE" stroke-width="2.70721" stroke-linecap="round" stroke-linejoin="round"/>
</svg>
