<svg width="332" height="332" viewBox="0 0 332 332" fill="none" xmlns="http://www.w3.org/2000/svg">
<path d="M187.42 318.559C187.42 321.692 186.483 323.807 184.635 324.851C182.788 325.922 180.485 325.654 177.754 324.075C175.023 322.495 172.721 320.112 170.873 316.899C168.999 313.713 168.089 310.554 168.089 307.394C168.089 304.235 168.999 302.173 170.873 301.102L171.436 300.835C173.176 300.112 175.291 300.487 177.754 301.906C180.485 303.485 182.788 305.868 184.635 309.054C186.483 312.24 187.42 315.427 187.42 318.559Z" fill="#85E585" stroke="#EEFBEE" stroke-width="2.67742" stroke-linecap="round" stroke-linejoin="round"/>
<path d="M110.122 273.927C110.122 277.086 109.185 279.174 107.338 280.245C105.491 281.289 103.188 281.022 100.457 279.442C97.726 277.862 95.4234 275.479 93.576 272.293C91.7286 269.08 90.7915 265.921 90.7915 262.788C90.7915 259.656 91.7286 257.54 93.576 256.496L94.1383 256.229C95.8786 255.506 97.9938 255.854 100.457 257.273C103.188 258.852 105.491 261.235 107.338 264.448C109.185 267.634 110.122 270.794 110.122 273.927Z" fill="#85E585" stroke="#EEFBEE" stroke-width="2.67742" stroke-linecap="round" stroke-linejoin="round"/>
<path d="M148.757 296.257C148.757 299.389 147.846 301.478 145.972 302.549C144.125 303.593 141.849 303.352 139.091 301.772C136.36 300.166 134.058 297.783 132.21 294.597C130.363 291.411 129.453 288.225 129.453 285.092C129.453 281.959 130.363 279.844 132.21 278.8L132.853 278.479C134.593 277.836 136.681 278.184 139.091 279.577C141.849 281.156 144.125 283.566 145.972 286.752C147.846 289.938 148.757 293.097 148.757 296.257Z" fill="#85E585" stroke="#EEFBEE" stroke-width="2.67742" stroke-linecap="round" stroke-linejoin="round"/>
<path d="M222.306 148.035C222.092 148.249 221.878 148.463 221.637 148.651C221.423 148.838 221.155 148.999 220.914 149.133L220.7 149.24C219.281 149.99 217.594 150.07 215.666 149.454C207.929 147.018 200.057 144.126 191.998 140.779C183.939 137.433 175.987 133.845 168.088 130.016V251.973C168.088 255.105 167.151 257.22 165.304 258.264C163.457 259.335 161.154 259.068 158.423 257.488C157.62 257.033 156.843 256.471 156.121 255.855C154.675 254.677 153.39 253.231 152.265 251.491C152.024 251.116 151.783 250.714 151.542 250.312C149.694 247.126 148.758 243.967 148.758 240.808V185.385L129.453 174.22V229.67C129.453 232.802 128.516 234.891 126.669 235.962C124.821 237.006 122.519 236.765 119.788 235.185C117.03 233.579 114.754 231.196 112.907 228.01C111.033 224.823 110.122 221.637 110.122 218.505V96.5483C102.224 91.2738 94.2451 85.6512 86.2128 79.7074C78.1538 73.7635 70.2556 67.5519 62.5446 61.0457C59.7868 58.7432 57.5913 55.6909 55.9046 51.9425C54.191 48.1941 53.7626 44.9812 54.5658 42.3038C55.0478 40.7509 55.8242 39.6264 56.922 38.9838L57.2968 38.7964C57.9661 38.4751 58.7426 38.3145 59.6261 38.3145C62.2232 38.3145 64.9542 39.5461 67.8458 41.9557C79.1177 51.2196 90.8448 60.0283 103 68.3283C115.156 76.6551 127.177 84.2322 139.092 91.1132C147.231 95.7986 155.424 100.243 163.671 104.393C167.499 106.348 171.355 108.195 175.21 110.016C187.366 115.745 199.093 120.484 210.365 124.233C213.256 125.143 215.987 127.098 218.558 130.07C219.789 131.489 220.807 132.961 221.637 134.514C222.547 136.228 223.216 138.048 223.645 139.923C224.448 143.537 223.993 146.241 222.306 148.035Z" fill="#85E585" stroke="#EEFBEE" stroke-width="2.67742" stroke-linecap="round" stroke-linejoin="round"/>
<path d="M158.422 69.0238C158.422 75.1016 156.521 79.2516 152.746 81.3935C148.971 83.5622 144.419 83.107 139.091 80.028C133.79 76.9758 129.238 72.1564 125.463 65.6503C121.661 59.1174 119.787 52.7987 119.787 46.6941C119.787 43.4812 120.323 40.8038 121.394 38.6887C122.304 36.7877 123.669 35.3419 125.463 34.3245L126.641 33.7354C130.175 32.2896 134.325 32.9322 139.091 35.69C144.419 38.769 148.971 43.5616 152.746 50.0677C155.932 55.5832 157.78 60.938 158.262 66.1322C158.369 67.0961 158.422 68.06 158.422 69.0238Z" fill="#85E585" stroke="#EEFBEE" stroke-width="2.67742" stroke-linecap="round" stroke-linejoin="round"/>
<path d="M220.915 149.132L221.637 148.784V148.65C221.423 148.838 221.156 148.998 220.915 149.132Z" fill="#85E585" stroke="#EEFBEE" stroke-width="2.67742" stroke-linecap="round" stroke-linejoin="round"/>
<path d="M110.122 273.926C110.122 270.794 109.185 267.635 107.338 264.449C105.49 261.236 103.188 258.853 100.457 257.273C97.9937 255.854 95.8785 255.506 94.1382 256.229L147.124 229.722C147.633 229.428 148.168 229.24 148.758 229.16V240.807C148.758 243.966 149.695 247.126 151.542 250.312C151.783 250.713 152.024 251.115 152.265 251.49C153.389 253.23 154.675 254.676 156.12 255.854L107.338 280.245C109.185 279.174 110.122 277.086 110.122 273.926Z" fill="#85E585" stroke="#EEFBEE" stroke-width="2.67742" stroke-linecap="round" stroke-linejoin="round"/>
<path d="M211.97 42.2496C211.97 48.3273 210.07 52.4773 206.294 54.6192L205.116 55.2083L189.989 62.7854L163.67 75.9315L152.746 81.3934C156.521 79.2515 158.422 75.1015 158.422 69.0238C158.422 68.0599 158.369 67.096 158.261 66.1322C157.78 60.938 155.932 55.5831 152.746 50.0676C148.971 43.5615 144.419 38.7689 139.091 35.6899C134.325 32.9322 130.175 32.2896 126.641 33.7354L137.86 28.1396L179.011 7.55019C182.787 5.38148 187.338 5.83664 192.64 8.91567C197.968 11.9947 202.519 16.7873 206.294 23.2934C210.07 29.8263 211.97 36.1451 211.97 42.2496Z" fill="#85E585" stroke="#EEFBEE" stroke-width="2.67742" stroke-linecap="round" stroke-linejoin="round"/>
<path d="M275.855 121.261C275.346 121.796 274.784 122.225 274.168 122.519L273.954 122.626L221.637 148.785V148.651C221.878 148.463 222.093 148.249 222.307 148.035C223.993 146.241 224.449 143.537 223.645 139.922C223.217 138.048 222.548 136.228 221.637 134.514C220.807 132.961 219.79 131.489 218.558 130.07C215.988 127.098 213.257 125.143 210.365 124.233C199.094 120.484 187.366 115.745 175.211 110.016C171.355 108.195 167.5 106.348 163.671 104.393C155.425 100.243 147.232 95.7985 139.093 91.1131C127.178 84.2321 115.156 76.655 103.001 68.3282C90.8454 60.0282 79.1183 51.2195 67.8464 41.9556C64.9548 39.546 62.2238 38.3143 59.6267 38.3143C58.7432 38.3143 57.9667 38.475 57.2974 38.7963L110.364 12.2897L110.685 12.1291C111.381 11.7275 112.211 11.54 113.175 11.54C115.772 11.54 118.503 12.7717 121.395 15.1813C126.776 19.5991 132.265 23.9365 137.861 28.1401L126.643 33.736L125.464 34.325C123.671 35.3424 122.305 36.7882 121.395 38.6892C120.324 40.8043 119.788 43.4818 119.788 46.6947C119.788 52.7992 121.663 59.1179 125.464 65.6508C129.24 72.1569 133.791 76.9763 139.093 80.0285C144.421 83.1076 148.972 83.5627 152.747 81.394L163.671 75.9321L189.99 62.786C190.874 63.3214 191.757 63.8301 192.641 64.3389C204.555 71.2198 216.604 77.5385 228.759 83.2414C240.915 88.9711 252.642 93.7102 263.914 97.4585C266.805 98.3689 269.536 100.323 272.107 103.295C274.704 106.267 276.391 109.56 277.194 113.148C277.997 116.763 277.542 119.467 275.855 121.261Z" fill="#85E585" stroke="#EEFBEE" stroke-width="2.67742" stroke-linecap="round" stroke-linejoin="round"/>
<path d="M221.637 148.785V225.198C221.637 228.331 220.7 230.446 218.853 231.49L218.29 231.758L165.304 258.264C167.152 257.22 168.089 255.105 168.089 251.972V130.016C175.987 133.845 183.939 137.432 191.998 140.779C200.057 144.126 207.929 147.017 215.666 149.454C217.594 150.07 219.281 149.989 220.7 149.24L220.914 149.133L221.637 148.785Z" fill="#85E585" stroke="#EEFBEE" stroke-width="2.67742" stroke-linecap="round" stroke-linejoin="round"/>
<path d="M148.757 185.385V224.931L126.668 235.962C128.515 234.891 129.452 232.802 129.452 229.67V174.22L148.757 185.385Z" fill="#85E585" stroke="#EEFBEE" stroke-width="2.67742" stroke-linecap="round" stroke-linejoin="round"/>
<path d="M202.306 269.483C202.306 272.615 201.395 274.704 199.521 275.775L198.959 276.042L145.973 302.549C147.847 301.478 148.757 299.389 148.757 296.257C148.757 293.124 147.847 289.938 145.973 286.752C144.125 283.566 141.849 281.156 139.092 279.576C136.682 278.184 134.594 277.836 132.854 278.479L185.759 252.026C187.606 250.981 189.909 251.222 192.64 252.802C195.398 254.382 197.674 256.791 199.521 259.978C201.395 263.164 202.306 266.323 202.306 269.483Z" fill="#85E585" stroke="#EEFBEE" stroke-width="2.67742" stroke-linecap="round" stroke-linejoin="round"/>
<path d="M240.968 291.785C240.968 294.918 240.031 297.033 238.184 298.077L184.635 324.851C186.483 323.807 187.42 321.692 187.42 318.56C187.42 315.427 186.483 312.241 184.635 309.055C182.788 305.869 180.485 303.486 177.754 301.906C175.291 300.487 173.176 300.112 171.436 300.835L224.341 274.382L224.663 274.221C226.457 273.311 228.679 273.632 231.303 275.132C234.034 276.711 236.336 279.094 238.184 282.281C240.031 285.467 240.968 288.653 240.968 291.785Z" fill="#85E585" stroke="#EEFBEE" stroke-width="2.67742" stroke-linecap="round" stroke-linejoin="round"/>
<path d="M56.9216 38.9832L56.8145 39.0367L56.9216 38.9832Z" fill="#85E585"/>
<path d="M56.9216 38.9832L56.8145 39.0367" stroke="#EEFBEE" stroke-width="2.67742" stroke-linecap="round" stroke-linejoin="round"/>
</svg>
