<svg width="332" height="332" viewBox="0 0 332 332" fill="none" xmlns="http://www.w3.org/2000/svg">
<path d="M230.534 142.705C228.915 139.221 227.022 135.956 224.882 132.937C223.181 130.523 221.315 128.273 219.257 126.188L147.068 53.422C144.269 50.6508 141.443 48.4558 138.644 46.8369C135.845 45.2181 133.019 44.1754 130.221 43.709L97.2676 38.8525L58.0311 33.0905C54.8758 32.7063 52.1048 33.1179 49.7177 34.3801H49.6353C48.5926 34.9837 47.6322 35.7245 46.7541 36.6025C43.8457 39.511 42.3916 43.8462 42.3916 49.6082V114.828C42.3916 147.041 50.4036 181.777 66.4547 218.983C82.506 256.216 104.045 287.797 131.126 313.781C132.333 314.933 133.541 315.976 134.72 316.909C135.928 317.842 137.245 318.692 138.644 319.515C140.043 320.311 141.36 320.97 142.568 321.436C143.748 321.902 144.955 322.232 146.162 322.479C163.997 325.936 179.444 324.235 192.478 317.293C199.255 313.699 205.346 308.732 210.834 302.339C212.398 300.528 213.879 298.635 215.251 296.687C228.366 278.633 234.897 255.064 234.897 225.98V160.76C234.897 154.998 233.442 148.989 230.534 142.705ZM185.563 190.585L182.408 192.368L134.967 219.449L134.446 219.751C132.032 221.123 129.233 220.876 126.023 219.038C122.812 217.172 119.986 214.181 117.599 210.038L92.3288 166.11C89.9142 161.939 88.7069 157.988 88.7069 154.174C88.7069 150.361 89.9142 147.809 92.3288 146.437C94.7159 145.065 97.542 145.285 100.752 147.15C103.249 148.577 105.499 150.717 107.475 153.543C108.078 154.367 108.627 155.217 109.176 156.15L126.023 185.207L162.131 164.628L168.414 161.034C170.28 159.964 172.42 159.882 174.835 160.787H174.862C175.548 161.034 176.261 161.391 177.002 161.83C180.295 163.75 183.148 166.768 185.563 170.912C187.977 175.082 189.185 179.061 189.185 182.847C189.185 186.634 187.977 189.213 185.563 190.585Z" fill="#85E585" stroke="#EEFBEE" stroke-width="2.7438" stroke-linecap="round" stroke-linejoin="round"/>
<path d="M174.834 160.787L163.255 166.577L126.021 185.207L162.13 164.629L168.413 161.034C170.279 159.964 172.419 159.882 174.834 160.787Z" fill="#85E585" stroke="#EEFBEE" stroke-width="2.7438" stroke-linecap="round" stroke-linejoin="round"/>
<path d="M182.407 192.369L134.967 219.45L134.445 219.752C132.031 221.124 129.232 220.877 126.022 219.038C122.812 217.173 119.985 214.182 117.598 210.039L92.3276 166.11C89.9131 161.94 88.7061 157.989 88.7061 154.175C88.7061 150.361 89.9131 147.809 92.3276 146.437C94.7147 145.065 97.5411 145.285 100.751 147.151C103.248 148.578 105.498 150.718 107.474 153.544C108.077 154.367 108.626 155.218 109.175 156.15L126.022 185.207L163.255 166.577L172.474 182.601C174.861 186.744 177.688 189.735 180.898 191.6C181.419 191.902 181.913 192.149 182.407 192.369Z" fill="#85E585" stroke="#EEFBEE" stroke-width="2.7438" stroke-linecap="round" stroke-linejoin="round"/>
<path d="M105.142 6.69556L104.593 6.9425L104.84 6.80531C104.84 6.80531 105.032 6.72299 105.142 6.69556Z" fill="#85E585" stroke="#EEFBEE" stroke-width="2.7438" stroke-linecap="round" stroke-linejoin="round"/>
<path d="M289.772 133.321V198.542C289.772 230.754 281.76 256.216 265.709 274.901C260.852 280.553 255.529 285.108 249.658 288.565C249.603 288.593 249.52 288.62 249.465 288.675C249.136 288.867 248.78 289.059 248.45 289.251C248.395 289.279 248.313 289.334 248.231 289.361L245.679 290.651L243.923 291.529L192.476 317.293C199.254 313.699 205.345 308.732 210.833 302.339C212.397 300.528 213.878 298.635 215.25 296.687C228.366 278.633 234.896 255.064 234.896 225.98V160.759C234.896 154.997 233.441 148.988 230.533 142.705C228.914 139.221 227.021 135.955 224.881 132.937C223.18 130.523 221.314 128.273 219.256 126.187L147.067 53.4219C144.268 50.6506 141.442 48.4556 138.643 46.8367C135.844 45.2179 133.019 44.1752 130.22 43.7088L97.2668 38.8523L58.0303 33.0903C54.8749 32.7062 52.1039 33.1177 49.7168 34.3799L104.428 7.02422L104.593 6.94191L105.142 6.69497C107.391 5.62488 109.97 5.29563 112.906 5.65232L185.096 16.2708C187.895 16.7373 190.72 17.7799 193.519 19.3988C196.318 21.0176 199.144 23.2127 201.943 25.9839L274.132 98.7495C278.742 103.469 282.501 108.984 285.409 115.267C288.317 121.55 289.772 127.559 289.772 133.321Z" fill="#85E585" stroke="#EEFBEE" stroke-width="2.7438" stroke-linecap="round" stroke-linejoin="round"/>
<path d="M105.443 6.53076L105.142 6.69539L105.443 6.53076Z" fill="#85E585"/>
<path d="M105.443 6.53076L105.142 6.69539" stroke="#EEFBEE" stroke-width="2.7438" stroke-linecap="round" stroke-linejoin="round"/>
<path d="M192.476 317.294L190.034 318.528L192.476 317.294Z" fill="#85E585"/>
<path d="M192.476 317.294L190.034 318.528" stroke="#EEFBEE" stroke-width="2.7438" stroke-linecap="round" stroke-linejoin="round"/>
</svg>
