<svg width="22" height="24" viewBox="0 0 22 24" fill="none" xmlns="http://www.w3.org/2000/svg">
<g clip-path="url(#clip0_632_8064)">
<path d="M10.1387 11.4419L0.0898438 21.9701C0.202692 22.37 0.405483 22.7388 0.682716 23.0484C0.959948 23.3579 1.30428 23.5999 1.6894 23.756C2.07451 23.9121 2.49021 23.978 2.90471 23.9488C3.31922 23.9196 3.72155 23.796 4.08097 23.5874L15.3879 17.1478L10.1387 11.4419Z" fill="#EA4335"/>
<path d="M20.2999 9.6517L15.4105 6.85107L9.90674 11.6808L15.4328 17.1321L20.2851 14.3615C20.7149 14.1364 21.075 13.7979 21.3262 13.3828C21.5774 12.9677 21.7102 12.4917 21.7102 12.0065C21.7102 11.5213 21.5774 11.0454 21.3262 10.6302C21.075 10.2151 20.7149 9.87669 20.2851 9.65161L20.2999 9.6517Z" fill="#FBBC04"/>
<path d="M0.0899202 1.9917C0.0292158 2.21626 -0.00101976 2.44796 2.62359e-05 2.68058V21.2807C0.000625649 21.5133 0.0308332 21.7448 0.0899202 21.9697L10.4833 11.7111L0.0899202 1.9917Z" fill="#4285F4"/>
<path d="M10.2136 11.9808L15.4103 6.85154L4.11845 0.381885C3.6936 0.133083 3.2104 0.00131666 2.71806 5.20116e-06C1.49626 -0.00236936 0.422112 0.808542 0.0898438 1.98437L10.2136 11.9808Z" fill="#34A853"/>
</g>
<defs>
<clipPath id="clip0_632_8064">
<rect width="21.7102" height="24" fill="white"/>
</clipPath>
</defs>
</svg>
